<?xml version="1.0" encoding="utf-8"?>
<!-- Generator: Adobe Illustrator 24.1.1, SVG Export Plug-In . SVG Version: 6.00 Build 0)  -->
<svg version="1.1" id="Layer_1" xmlns="http://www.w3.org/2000/svg" xmlns:xlink="http://www.w3.org/1999/xlink" x="0px" y="0px"
	 viewBox="0 0 1366 768" style="enable-background:new 0 0 1366 768;" xml:space="preserve">
<style type="text/css">
	.st0{fill:#FFFFFF;}
</style>
<g>
	<g>
		<path class="st0" d="M558.91,714l-81.5-79.78l0.03-2.16l6.09-427.49l57.19-47.96l47.43,64.36L586,563.64l182.16-83.98l67.22,10.16
			l-4.45,85.99L558.91,714z M487.52,630.05l73.27,71.72l260.41-132.3l3.68-71.09l-55.24-8.35l-193.77,89.34l2.23-355.12l-39.1-53.06
			l-45.47,38.13L487.52,630.05z"/>
	</g>
	<g>
		<path class="st0" d="M611.28,611.12l-81.5-79.78l0.03-2.16l6.09-427.49l57.19-47.96l47.43,64.36l-2.15,342.65l182.16-83.98
			l67.22,10.16l-4.45,85.99L611.28,611.12z M539.89,527.17l73.27,71.72l260.41-132.3l3.68-71.09L822,387.15L628.23,476.5
			l2.23-355.12l-39.1-53.06l-45.47,38.13L539.89,527.17z"/>
	</g>
</g>
</svg>
